<svg width="100" height="128" viewBox="0 0 498 128" fill="none" xmlns="http://www.w3.org/2000/svg">
<path d="M169.267 40.6623C169.877 31.2139 173.483 23.8481 180.087 18.5651C186.792 13.2821 195.327 10.6406 205.689 10.6406C212.801 10.6406 218.948 11.9106 224.129 14.4505C229.311 16.9904 233.222 20.4447 235.863 24.8133C238.505 29.1819 239.826 34.1094 239.826 39.5956C239.826 45.8945 238.149 51.2791 234.797 55.7494C231.444 60.2196 227.431 63.2167 222.758 64.7406V65.3502C228.752 67.179 233.425 70.5316 236.778 75.4082C240.131 80.1833 241.807 86.3298 241.807 93.848C241.807 99.8422 240.435 105.176 237.692 109.849C234.949 114.523 230.885 118.231 225.501 120.974C220.116 123.616 213.665 124.936 206.147 124.936C195.174 124.936 186.132 122.143 179.02 116.555C172.01 110.865 168.251 102.738 167.743 92.1716H184.507C184.913 97.5562 186.996 101.976 190.755 105.43C194.514 108.783 199.594 110.459 205.994 110.459C212.192 110.459 216.967 108.783 220.319 105.43C223.672 101.976 225.348 97.5562 225.348 92.1716C225.348 85.0599 223.062 80.0309 218.49 77.0846C214.02 74.0367 207.112 72.5128 197.765 72.5128H193.803V58.1877H197.917C206.147 58.0861 212.395 56.7145 216.662 54.073C221.03 51.4315 223.215 47.2661 223.215 41.5767C223.215 36.7001 221.64 32.8394 218.49 29.9947C215.341 27.0484 210.871 25.5753 205.08 25.5753C199.39 25.5753 194.971 27.0484 191.821 29.9947C188.672 32.8394 186.792 36.3953 186.183 40.6623H169.267Z" fill="#FC8E03"/>
<path d="M248.77 63.6161C248.77 57.7675 249.967 52.5883 252.363 48.0786C254.83 43.5688 258.141 40.0808 262.299 37.6145C266.527 35.0778 271.213 33.8094 276.357 33.8094C280.162 33.8094 283.896 34.655 287.56 36.3462C291.295 37.9669 294.255 40.1513 296.439 42.8994V14.7839H308.594V92.9999H296.439V84.227C294.466 87.0456 291.718 89.371 288.195 91.2031C284.742 93.0352 280.761 93.9512 276.251 93.9512C271.177 93.9512 266.527 92.6828 262.299 90.1461C258.141 87.5389 254.83 83.9452 252.363 79.365C249.967 74.7143 248.77 69.4647 248.77 63.6161ZM296.439 63.8275C296.439 59.811 295.593 56.323 293.902 53.3634C292.282 50.4039 290.132 48.149 287.455 46.5988C284.777 45.0486 281.888 44.2735 278.788 44.2735C275.687 44.2735 272.798 45.0486 270.12 46.5988C267.443 48.0786 265.258 50.2982 263.567 53.2577C261.946 56.1468 261.136 59.5996 261.136 63.6161C261.136 67.6326 261.946 71.1558 263.567 74.1858C265.258 77.2158 267.443 79.5411 270.12 81.1618C272.869 82.7121 275.758 83.4872 278.788 83.4872C281.888 83.4872 284.777 82.7121 287.455 81.1618C290.132 79.6116 292.282 77.3567 293.902 74.3972C295.593 71.3672 296.439 67.844 296.439 63.8275Z" fill="black"/>
<path d="M317.762 63.6161C317.762 57.7675 318.96 52.5883 321.355 48.0786C323.822 43.5688 327.134 40.0808 331.291 37.6145C335.519 35.0778 340.17 33.8094 345.243 33.8094C349.823 33.8094 353.805 34.7255 357.187 36.5576C360.64 38.3192 363.388 40.5388 365.431 43.2165V34.7607H377.586V92.9999H365.431V84.3327C363.388 87.0809 360.604 89.371 357.081 91.2031C353.558 93.0352 349.541 93.9512 345.032 93.9512C340.029 93.9512 335.448 92.6828 331.291 90.1461C327.134 87.5389 323.822 83.9452 321.355 79.365C318.96 74.7143 317.762 69.4647 317.762 63.6161ZM365.431 63.8275C365.431 59.811 364.586 56.323 362.895 53.3634C361.274 50.4039 359.125 48.149 356.447 46.5988C353.769 45.0486 350.88 44.2735 347.78 44.2735C344.679 44.2735 341.79 45.0486 339.113 46.5988C336.435 48.0786 334.251 50.2982 332.559 53.2577C330.939 56.1468 330.128 59.5996 330.128 63.6161C330.128 67.6326 330.939 71.1558 332.559 74.1858C334.251 77.2158 336.435 79.5411 339.113 81.1618C341.861 82.7121 344.75 83.4872 347.78 83.4872C350.88 83.4872 353.769 82.7121 356.447 81.1618C359.125 79.6116 361.274 77.3567 362.895 74.3972C364.586 71.3672 365.431 67.844 365.431 63.8275Z" fill="black"/>
<path d="M443.196 34.7607L407.471 120.376H394.998L406.837 92.0486L383.9 34.7607H397.324L413.707 79.1536L430.724 34.7607H443.196Z" fill="black"/>
<path d="M470.787 93.9512C466.206 93.9512 462.084 93.1408 458.42 91.5202C454.826 89.829 451.973 87.5741 449.859 84.7555C447.745 81.8665 446.617 78.6603 446.476 75.1371H458.949C459.16 77.6033 460.323 79.6821 462.437 81.3732C464.621 82.9939 467.334 83.8043 470.575 83.8043C473.958 83.8043 476.565 83.1701 478.397 81.9017C480.299 80.5629 481.251 78.8717 481.251 76.8282C481.251 74.6438 480.194 73.0231 478.08 71.9662C476.036 70.9092 472.76 69.7465 468.25 68.4781C463.881 67.2802 460.323 66.1176 457.574 64.9901C454.826 63.8627 452.431 62.1363 450.387 59.811C448.414 57.4856 447.428 54.4204 447.428 50.6153C447.428 47.5149 448.344 44.6963 450.176 42.1595C452.008 39.5523 454.615 37.5088 457.997 36.0291C461.45 34.5493 465.396 33.8094 469.835 33.8094C476.459 33.8094 481.779 35.5006 485.796 38.8829C489.883 42.1948 492.067 46.7397 492.349 52.5179H480.299C480.088 49.9107 479.031 47.8319 477.128 46.2817C475.226 44.7315 472.654 43.9564 469.413 43.9564C466.242 43.9564 463.811 44.5553 462.119 45.7532C460.428 46.9511 459.583 48.5366 459.583 50.5096C459.583 52.0598 460.146 53.3634 461.274 54.4204C462.401 55.4774 463.775 56.323 465.396 56.9571C467.017 57.5209 469.413 58.2607 472.584 59.1768C476.811 60.3042 480.264 61.4669 482.942 62.6648C485.69 63.7922 488.051 65.4834 490.024 67.7383C491.997 69.9931 493.018 72.9879 493.089 76.7225C493.089 80.0344 492.173 82.9939 490.341 85.6011C488.509 88.2083 485.901 90.2518 482.519 91.7316C479.207 93.2113 475.296 93.9512 470.787 93.9512Z" fill="black"/>
<path d="M346.402 64.1053C346.402 99.3482 317.832 127.918 282.589 127.918C247.346 127.918 218.776 99.3482 218.776 64.1053C218.776 28.8625 247.346 0.29248 282.589 0.29248C317.832 0.29248 346.402 28.8625 346.402 64.1053ZM236.116 64.1053C236.116 89.7717 256.923 110.578 282.589 110.578C308.256 110.578 329.062 89.7717 329.062 64.1053C329.062 38.439 308.256 17.6324 282.589 17.6324C256.923 17.6324 236.116 38.439 236.116 64.1053Z" fill="#FC8E03"/>
<path d="M17.5689 49.2193C14.5057 49.2193 11.6793 48.5087 9.08984 47.0877C6.53192 45.635 4.49506 43.6297 2.97926 41.0718C1.49504 38.4823 0.75293 35.577 0.75293 32.356C0.75293 29.1349 1.49504 26.2454 2.97926 23.6875C4.49506 21.1296 6.53192 19.1401 9.08984 17.719C11.6793 16.2664 14.5057 15.54 17.5689 15.54C20.6636 15.54 23.49 16.2664 26.0479 17.719C28.6374 19.1401 30.6742 21.1296 32.1584 23.6875C33.6427 26.2454 34.3848 29.1349 34.3848 32.356C34.3848 35.577 33.6427 38.4823 32.1584 41.0718C30.6742 43.6297 28.6374 45.635 26.0479 47.0877C23.49 48.5087 20.6636 49.2193 17.5689 49.2193ZM17.5689 44.5297C19.7478 44.5297 21.6899 44.0403 23.3952 43.0613C25.1005 42.0508 26.4268 40.6297 27.3742 38.7981C28.3532 36.9349 28.8426 34.7876 28.8426 32.356C28.8426 29.9244 28.3532 27.7928 27.3742 25.9612C26.4268 24.1296 25.1005 22.7243 23.3952 21.7454C21.6899 20.7664 19.7478 20.2769 17.5689 20.2769C15.3899 20.2769 13.4478 20.7664 11.7425 21.7454C10.0372 22.7243 8.6951 24.1296 7.71614 25.9612C6.76877 27.7928 6.29508 29.9244 6.29508 32.356C6.29508 34.7876 6.76877 36.9349 7.71614 38.7981C8.6951 40.6297 10.0372 42.0508 11.7425 43.0613C13.4478 44.0403 15.3899 44.5297 17.5689 44.5297Z" fill="black"/>
<path d="M65.562 48.8877H60.1619L43.9144 24.3033V48.8877H38.5144V15.919H43.9144L60.1619 40.456V15.919H65.562V48.8877Z" fill="black"/>
<path d="M76.869 20.3243V29.9875H88.2376V34.3928H76.869V44.4824H89.6586V48.8877H71.469V15.919H89.6586V20.3243H76.869Z" fill="black"/>
<path d="M22.8915 56.5315V82.8877H18.5683V71.3592H6.16764V82.8877H1.84447V56.5315H6.16764V67.8324H18.5683V56.5315H22.8915Z" fill="black"/>
<path d="M31.92 56.5315V73.3312C31.92 75.3285 32.4383 76.8327 33.4748 77.844C34.5367 78.8552 36.003 79.3609 37.8738 79.3609C39.77 79.3609 41.2363 78.8552 42.2729 77.844C43.3347 76.8327 43.8656 75.3285 43.8656 73.3312V56.5315H48.1888V73.2554C48.1888 75.4043 47.7211 77.2246 46.7856 78.7162C45.8502 80.2078 44.5988 81.3202 43.0313 82.0534C41.4638 82.7866 39.732 83.1531 37.8359 83.1531C35.9398 83.1531 34.208 82.7866 32.6405 82.0534C31.0984 81.3202 29.8722 80.2078 28.962 78.7162C28.0519 77.2246 27.5968 75.4043 27.5968 73.2554V56.5315H31.92Z" fill="black"/>
<path d="M74.5233 82.8877H70.2001L57.1927 63.2059V82.8877H52.8695V56.4936H57.1927L70.2001 76.1375V56.4936H74.5233V82.8877Z" fill="black"/>
<path d="M87.8608 56.5315C90.667 56.5315 93.1194 57.0751 95.2178 58.1622C97.3414 59.224 98.9721 60.7662 100.11 62.7887C101.273 64.786 101.854 67.1245 101.854 69.8044C101.854 72.4843 101.273 74.8102 100.11 76.7822C98.9721 78.7541 97.3414 80.271 95.2178 81.3329C93.1194 82.3694 90.667 82.8877 87.8608 82.8877H79.2524V56.5315H87.8608ZM87.8608 79.3609C90.9451 79.3609 93.309 78.5266 94.9523 76.858C96.5956 75.1894 97.4173 72.8382 97.4173 69.8044C97.4173 66.7453 96.5956 64.3562 94.9523 62.637C93.309 60.9179 90.9451 60.0583 87.8608 60.0583H83.5755V79.3609H87.8608Z" fill="black"/>
<path d="M118.881 82.8877L112.813 72.3452H109.514V82.8877H105.191V56.5315H114.292C116.315 56.5315 118.021 56.8855 119.412 57.5933C120.828 58.3012 121.877 59.2493 122.559 60.4375C123.267 61.6258 123.621 62.9531 123.621 64.4194C123.621 66.1386 123.116 67.706 122.104 69.1218C121.118 70.5123 119.589 71.4604 117.516 71.966L124.038 82.8877H118.881ZM109.514 68.8943H114.292C115.91 68.8943 117.124 68.4898 117.933 67.6807C118.767 66.8717 119.184 65.7846 119.184 64.4194C119.184 63.0542 118.78 61.9924 117.971 61.2339C117.162 60.4502 115.936 60.0583 114.292 60.0583H109.514V68.8943Z" fill="black"/>
<path d="M132.527 60.0204V67.7566H141.628V71.2834H132.527V79.3609H142.766V82.8877H128.204V56.4936H142.766V60.0204H132.527Z" fill="black"/>
<path d="M155.751 56.5315C158.557 56.5315 161.01 57.0751 163.108 58.1622C165.232 59.224 166.862 60.7662 168 62.7887C169.163 64.786 169.744 67.1245 169.744 69.8044C169.744 72.4843 169.163 74.8102 168 76.7822C166.862 78.7541 165.232 80.271 163.108 81.3329C161.01 82.3694 158.557 82.8877 155.751 82.8877H147.143V56.5315H155.751ZM155.751 79.3609C158.835 79.3609 161.199 78.5266 162.843 76.858C164.486 75.1894 165.307 72.8382 165.307 69.8044C165.307 66.7453 164.486 64.3562 162.843 62.637C161.199 60.9179 158.835 60.0583 155.751 60.0583H151.466V79.3609H155.751Z" fill="black"/>
<path d="M13.3057 92.9664C16.811 92.9664 19.8741 93.6453 22.4952 95.0032C25.1479 96.3295 27.1847 98.2559 28.6058 100.782C30.0584 103.277 30.7847 106.198 30.7847 109.545C30.7847 112.893 30.0584 115.798 28.6058 118.261C27.1847 120.724 25.1479 122.619 22.4952 123.946C19.8741 125.24 16.811 125.888 13.3057 125.888H2.55294V92.9664H13.3057ZM13.3057 121.482C17.1583 121.482 20.111 120.44 22.1636 118.356C24.2163 116.272 25.2426 113.335 25.2426 109.545C25.2426 105.724 24.2163 102.74 22.1636 100.593C20.111 98.4453 17.1583 97.3717 13.3057 97.3717H7.95299V121.482H13.3057Z" fill="black"/>
<path d="M40.3525 97.3243V106.988H51.721V111.393H40.3525V121.482H53.1421V125.888H34.9525V92.919H53.1421V97.3243H40.3525Z" fill="black"/>
<path d="M86.983 92.9664L74.6198 125.888H68.3671L55.9565 92.9664H61.7355L71.4934 120.346L81.2988 92.9664H86.983Z" fill="black"/>
<path d="M101.162 126.219C98.9517 126.219 96.9622 125.84 95.1937 125.082C93.4253 124.293 92.0358 123.188 91.0253 121.767C90.0147 120.346 89.5095 118.688 89.5095 116.793H95.2885C95.4148 118.214 95.9674 119.382 96.9464 120.298C97.9569 121.214 99.3622 121.672 101.162 121.672C103.025 121.672 104.478 121.23 105.52 120.346C106.562 119.43 107.083 118.261 107.083 116.84C107.083 115.735 106.752 114.835 106.089 114.14C105.457 113.445 104.652 112.909 103.673 112.53C102.725 112.151 101.399 111.74 99.6938 111.298C97.5464 110.73 95.7937 110.161 94.4358 109.593C93.1095 108.993 91.9727 108.077 91.0253 106.845C90.0779 105.614 89.6042 103.972 89.6042 101.919C89.6042 100.024 90.0779 98.3664 91.0253 96.9453C91.9727 95.5243 93.299 94.4348 95.0043 93.6769C96.7095 92.919 98.6832 92.54 100.925 92.54C104.115 92.54 106.72 93.3453 108.741 94.9558C110.794 96.5348 111.931 98.7138 112.152 101.493H106.183C106.089 100.293 105.52 99.2664 104.478 98.4138C103.436 97.5611 102.062 97.1348 100.357 97.1348C98.8096 97.1348 97.5464 97.5296 96.5674 98.319C95.5885 99.1085 95.099 100.245 95.099 101.73C95.099 102.74 95.399 103.577 95.999 104.24C96.6306 104.872 97.4201 105.377 98.3675 105.756C99.3148 106.135 100.61 106.545 102.252 106.988C104.431 107.588 106.199 108.188 107.557 108.788C108.946 109.388 110.115 110.319 111.062 111.582C112.041 112.814 112.531 114.472 112.531 116.556C112.531 118.23 112.073 119.809 111.157 121.293C110.273 122.777 108.962 123.977 107.225 124.893C105.52 125.777 103.499 126.219 101.162 126.219Z" fill="black"/>
<path d="M134.239 92.9664V125.888H128.839V92.9664H134.239Z" fill="black"/>
<path d="M167.192 125.888H161.792L145.545 101.303V125.888H140.145V92.919H145.545L161.792 117.456V92.919H167.192V125.888Z" fill="black"/>
<path d="M362.32 127.082C360.163 127.082 358.213 126.598 356.47 125.63C354.728 124.634 353.358 123.251 352.363 121.481C351.367 119.683 350.869 117.609 350.869 115.258C350.869 112.935 351.381 110.874 352.404 109.076C353.428 107.278 354.824 105.895 356.595 104.927C358.365 103.959 360.342 103.475 362.527 103.475C364.712 103.475 366.69 103.959 368.46 104.927C370.23 105.895 371.627 107.278 372.651 109.076C373.674 110.874 374.186 112.935 374.186 115.258C374.186 117.581 373.66 119.642 372.609 121.44C371.558 123.238 370.12 124.634 368.294 125.63C366.496 126.598 364.505 127.082 362.32 127.082ZM362.32 122.975C363.537 122.975 364.671 122.684 365.722 122.104C366.801 121.523 367.672 120.651 368.336 119.49C369 118.328 369.332 116.918 369.332 115.258C369.332 113.598 369.013 112.202 368.377 111.068C367.741 109.906 366.898 109.035 365.846 108.454C364.795 107.873 363.661 107.583 362.444 107.583C361.227 107.583 360.093 107.873 359.042 108.454C358.019 109.035 357.203 109.906 356.595 111.068C355.986 112.202 355.682 113.598 355.682 115.258C355.682 117.72 356.304 119.628 357.549 120.983C358.821 122.311 360.411 122.975 362.32 122.975Z" fill="#FC8E03"/>
<path d="M387.408 107.707H383.176V126.709H378.405V107.707H375.708V103.849H378.405V102.231C378.405 99.603 379.096 97.6945 380.479 96.5052C381.89 95.2882 384.089 94.6797 387.076 94.6797V98.6211C385.638 98.6211 384.628 98.8977 384.047 99.4509C383.466 99.9764 383.176 100.903 383.176 102.231V103.849H387.408V107.707Z" fill="#FC8E03"/>
<path d="M398.726 115.258C398.726 112.907 399.196 110.846 400.136 109.076C401.104 107.278 402.432 105.895 404.119 104.927C405.806 103.959 407.743 103.475 409.928 103.475C412.694 103.475 414.975 104.139 416.773 105.467C418.599 106.767 419.83 108.634 420.466 111.068H415.363C414.948 109.934 414.284 109.049 413.371 108.412C412.458 107.776 411.311 107.458 409.928 107.458C407.992 107.458 406.443 108.15 405.281 109.533C404.147 110.888 403.58 112.796 403.58 115.258C403.58 117.72 404.147 119.642 405.281 121.025C406.443 122.408 407.992 123.099 409.928 123.099C412.666 123.099 414.478 121.896 415.363 119.49H420.466C419.802 121.813 418.557 123.666 416.732 125.049C414.906 126.405 412.638 127.082 409.928 127.082C407.743 127.082 405.806 126.598 404.119 125.63C402.432 124.634 401.104 123.251 400.136 121.481C399.196 119.683 398.726 117.609 398.726 115.258Z" fill="#FC8E03"/>
<path d="M434.058 127.082C431.9 127.082 429.95 126.598 428.208 125.63C426.465 124.634 425.096 123.251 424.101 121.481C423.105 119.683 422.607 117.609 422.607 115.258C422.607 112.935 423.119 110.874 424.142 109.076C425.165 107.278 426.562 105.895 428.332 104.927C430.103 103.959 432.08 103.475 434.265 103.475C436.45 103.475 438.428 103.959 440.198 104.927C441.968 105.895 443.365 107.278 444.388 109.076C445.412 110.874 445.924 112.935 445.924 115.258C445.924 117.581 445.398 119.642 444.347 121.44C443.296 123.238 441.858 124.634 440.032 125.63C438.234 126.598 436.243 127.082 434.058 127.082ZM434.058 122.975C435.275 122.975 436.409 122.684 437.46 122.104C438.539 121.523 439.41 120.651 440.074 119.49C440.737 118.328 441.069 116.918 441.069 115.258C441.069 113.598 440.751 112.202 440.115 111.068C439.479 109.906 438.635 109.035 437.584 108.454C436.533 107.873 435.399 107.583 434.182 107.583C432.965 107.583 431.831 107.873 430.78 108.454C429.757 109.035 428.941 109.906 428.332 111.068C427.724 112.202 427.42 113.598 427.42 115.258C427.42 117.72 428.042 119.628 429.287 120.983C430.559 122.311 432.149 122.975 434.058 122.975Z" fill="#FC8E03"/>
<path d="M447.985 115.175C447.985 112.879 448.455 110.846 449.396 109.076C450.364 107.306 451.664 105.937 453.296 104.969C454.955 103.973 456.795 103.475 458.814 103.475C460.307 103.475 461.773 103.807 463.212 104.471C464.677 105.107 465.839 105.965 466.697 107.043V96.0073H471.468V126.709H466.697V123.265C465.922 124.372 464.843 125.284 463.46 126.004C462.105 126.723 460.542 127.082 458.772 127.082C456.781 127.082 454.955 126.584 453.296 125.589C451.664 124.565 450.364 123.155 449.396 121.357C448.455 119.531 447.985 117.471 447.985 115.175ZM466.697 115.258C466.697 113.681 466.365 112.312 465.701 111.151C465.065 109.989 464.221 109.104 463.17 108.495C462.119 107.887 460.985 107.583 459.768 107.583C458.551 107.583 457.417 107.887 456.366 108.495C455.315 109.076 454.457 109.947 453.794 111.109C453.158 112.243 452.839 113.598 452.839 115.175C452.839 116.752 453.158 118.135 453.794 119.324C454.457 120.513 455.315 121.426 456.366 122.062C457.445 122.671 458.579 122.975 459.768 122.975C460.985 122.975 462.119 122.671 463.17 122.062C464.221 121.454 465.065 120.569 465.701 119.407C466.365 118.217 466.697 116.835 466.697 115.258Z" fill="#FC8E03"/>
<path d="M497.594 114.719C497.594 115.576 497.539 116.351 497.429 117.042H479.962C480.1 118.867 480.778 120.333 481.995 121.44C483.212 122.546 484.705 123.099 486.476 123.099C489.02 123.099 490.818 122.034 491.869 119.905H496.972C496.281 122.007 495.022 123.735 493.197 125.091C491.399 126.418 489.159 127.082 486.476 127.082C484.291 127.082 482.327 126.598 480.584 125.63C478.869 124.634 477.514 123.251 476.518 121.481C475.55 119.683 475.066 117.609 475.066 115.258C475.066 112.907 475.536 110.846 476.477 109.076C477.445 107.278 478.786 105.895 480.501 104.927C482.244 103.959 484.235 103.475 486.476 103.475C488.633 103.475 490.555 103.945 492.242 104.886C493.93 105.826 495.243 107.154 496.184 108.869C497.124 110.556 497.594 112.506 497.594 114.719ZM492.657 113.225C492.63 111.483 492.007 110.086 490.79 109.035C489.573 107.984 488.066 107.458 486.268 107.458C484.636 107.458 483.239 107.984 482.078 109.035C480.916 110.058 480.225 111.455 480.003 113.225H492.657Z" fill="#FC8E03"/>
</svg>
