<svg width="743" height="683" viewBox="0 0 743 683" fill="none" xmlns="http://www.w3.org/2000/svg">
<g clip-path="url(#clip0_32_1375)">
<path opacity="0.1" d="M836.421 483.676C806.586 527.26 818.175 590.932 837.133 641.916C843.481 658.99 850.663 677.054 847.982 695.356C844.709 717.74 827.354 734.135 809.052 742.752C775.766 758.565 735.917 754.795 705.341 732.939C678.91 714.045 659.979 683.323 633.098 665.291C588.092 635.13 530.841 646.516 481.991 667.295C447.43 681.998 409.644 701.129 375.299 685.758C351.137 674.986 334.428 648.627 325.324 620.728C320.926 607.252 317.739 592.721 309.384 581.949C304.396 575.604 297.889 571.091 291.213 567.299C230.268 532.602 153.383 551.141 94.238 512.707C54.286 486.725 28.7078 437.702 17.3532 386.589C5.99866 335.476 7.34882 281.875 10.2273 229.243C12.2713 191.832 15.9374 151.9 36.7432 123.021C58.7491 92.4824 96.5259 81.118 130.665 86.9241C164.803 92.7302 195.764 113.52 222.955 137.886C256.981 168.338 288.532 206.266 330.312 218.611C358.759 227.013 388.688 222.414 418.036 220.83C467.092 218.169 516.158 224.062 564.942 230.525C611.645 236.729 658.704 243.559 703.176 261.009C734.661 273.365 759.902 295.781 789.633 311.444C809.014 321.655 830.148 324.478 848.488 337.479C871.094 353.497 891.806 381.364 885.993 413.96C880.536 444.994 852.267 460.549 836.421 483.676Z" fill="#219653"/>
<path d="M681.06 518C681.06 518 688.419 527.646 677.661 542.114C666.904 556.583 658.016 568.877 661.626 577.926C661.626 577.926 677.855 550.98 691.062 550.603C704.27 550.225 695.594 534.205 681.06 518Z" fill="#3ECE6F"/>
<path opacity="0.1" d="M681.06 518C681.716 518.927 682.237 519.943 682.605 521.016C695.497 536.134 702.356 550.243 689.973 550.603C678.434 550.936 664.594 571.534 661.274 576.742C661.384 577.144 661.516 577.539 661.67 577.926C661.67 577.926 677.898 550.98 691.106 550.603C704.314 550.225 695.594 534.205 681.06 518Z" fill="black"/>
<path d="M694.742 530.25C694.742 533.635 694.364 536.388 693.864 536.388C693.363 536.388 692.985 533.644 692.985 530.25C692.985 526.856 693.46 528.496 693.925 528.496C694.39 528.496 694.742 526.865 694.742 530.25Z" fill="#FFD037"/>
<path d="M699.44 534.284C696.463 535.906 693.872 536.914 693.653 536.467C693.433 536.02 695.655 534.406 698.632 532.793C701.609 531.179 700.432 532.354 700.66 532.793C700.889 533.231 702.408 532.661 699.44 534.284Z" fill="#FFD037"/>
<path d="M642.209 518C642.209 518 634.85 527.646 645.608 542.114C656.366 556.583 665.235 568.868 661.644 577.917C661.644 577.917 645.415 550.971 632.207 550.594C618.999 550.217 627.658 534.205 642.209 518Z" fill="#3ECE6F"/>
<path opacity="0.1" d="M642.209 518C641.568 518.929 641.063 519.945 640.708 521.016C627.816 536.134 620.958 550.243 633.34 550.603C644.879 550.936 658.719 571.534 662.039 576.742C661.929 577.144 661.797 577.539 661.644 577.926C661.644 577.926 645.415 550.98 632.207 550.603C618.999 550.225 627.658 534.205 642.209 518Z" fill="black"/>
<path d="M628.51 530.25C628.51 533.635 628.887 536.388 629.388 536.388C629.889 536.388 630.266 533.644 630.266 530.25C630.266 526.856 629.792 528.496 629.327 528.496C628.861 528.496 628.51 526.865 628.51 530.25Z" fill="#FFD037"/>
<path d="M623.812 534.284C626.789 535.906 629.379 536.914 629.599 536.467C629.818 536.02 627.597 534.406 624.62 532.793C621.642 531.179 622.819 532.354 622.591 532.793C622.363 533.231 620.843 532.661 623.812 534.284Z" fill="#FFD037"/>
<path d="M630.854 576.663C630.854 576.663 651.43 576.032 657.63 571.621C663.83 567.211 689.245 561.976 690.817 568.991C692.389 576.006 721.737 604.162 698.509 604.347C675.282 604.531 644.537 600.734 638.345 596.972C632.154 593.21 630.854 576.663 630.854 576.663Z" fill="#A8A8A8"/>
<path opacity="0.2" d="M698.922 601.909C675.694 602.093 644.949 598.296 638.758 594.534C634.042 591.667 632.163 581.381 631.539 576.637H630.854C630.854 576.637 632.154 593.21 638.345 596.972C644.537 600.734 675.282 604.54 698.509 604.347C705.219 604.294 707.528 601.909 707.405 598.384C706.475 600.541 703.919 601.874 698.922 601.909Z" fill="black"/>
<path opacity="0.1" d="M194.262 589.716C296.773 589.716 379.874 573.588 379.874 553.694C379.874 533.799 296.773 517.671 194.262 517.671C91.7517 517.671 8.65039 533.799 8.65039 553.694C8.65039 573.588 91.7517 589.716 194.262 589.716Z" fill="white"/>
<path opacity="0.1" d="M614.612 509.045C717.123 509.045 800.224 492.917 800.224 473.022C800.224 453.128 717.123 437 614.612 437C512.101 437 429 453.128 429 473.022C429 492.917 512.101 509.045 614.612 509.045Z" fill="#219653"/>
<path d="M198.665 538.503L195.723 542.773C195.723 542.773 198.928 547.044 199.235 547.579C199.543 548.114 208.588 547.316 208.588 547.316L209.387 544.115L208.052 540.38L198.665 538.503Z" fill="#E6E6F0"/>
<path d="M99.7549 536.1L93.8711 537.161L97.6121 544.378L101.625 546.509L105.366 549.175L106.438 546.246L103.759 540.634L99.7549 536.1Z" fill="#FDC2CC"/>
<path d="M195.995 466.695C195.995 466.695 227.275 474.166 233.15 482.479C233.15 482.479 238.498 487.021 233.15 495.29C227.802 503.559 220.32 522.254 220.32 522.254C220.32 522.254 214.972 540.406 212.838 541.739C210.704 543.071 198.401 544.141 197.33 539.108C197.33 539.108 204.276 528.164 204.276 523.087C204.276 518.01 215.771 493.992 215.771 493.992C215.771 493.992 189.575 491.055 181.285 492.923C172.995 494.79 185.035 463.757 195.995 466.695Z" fill="#565171"/>
<path opacity="0.1" d="M195.995 466.695C195.995 466.695 227.275 474.166 233.15 482.479C233.15 482.479 238.498 487.021 233.15 495.29C227.802 503.559 220.32 522.254 220.32 522.254C220.32 522.254 214.972 540.406 212.838 541.739C210.704 543.071 198.401 544.141 197.33 539.108C197.33 539.108 204.276 528.164 204.276 523.087C204.276 518.01 215.771 493.992 215.771 493.992C215.771 493.992 189.575 491.055 181.285 492.923C172.995 494.79 185.035 463.757 195.995 466.695Z" fill="black"/>
<path d="M189.575 473.903C189.514 475.455 189.347 477.2 189.11 479.077C187.397 492.668 181.821 512.88 181.821 512.88C181.821 512.88 176.209 524.894 174.602 532.637C172.995 540.38 162.036 542.282 162.036 542.282C162.036 542.282 132.09 545.79 125.942 544.422C119.795 543.054 110.135 548.429 105.358 547.623C100.581 546.816 97.6035 535.609 97.6035 535.609C105.895 535.658 114.1 533.929 121.666 530.541C133.96 524.938 151.612 527.603 151.612 527.603C152.928 527.222 154.153 526.575 155.21 525.703C156.267 524.832 157.134 523.754 157.759 522.535C159.629 518.528 159.629 494.238 159.094 492.633C155.581 482.111 155.871 475.359 156.881 471.421C157.219 469.702 157.979 468.093 159.094 466.739L189.575 473.903Z" fill="#565171"/>
<path opacity="0.1" d="M189.575 473.903C189.514 475.455 189.347 477.2 189.11 479.077C186.423 479.287 178.888 479.489 173.303 476.043C168.034 472.816 160.367 471.719 156.916 471.377C157.254 469.658 158.014 468.049 159.129 466.695L189.575 473.903Z" fill="black"/>
<path d="M193.273 470.562C192.026 474.07 190.111 478.182 190.111 478.182C190.111 478.182 180.223 479.515 173.268 475.245C166.312 470.974 155.089 470.439 155.089 470.439C156.907 469.326 158.137 465.941 158.901 462.977C159.327 461.301 159.661 459.603 159.902 457.891C159.902 457.891 192.781 464.564 194.151 465.634C194.66 466.055 194.116 468.177 193.273 470.562Z" fill="#E6E6F0"/>
<path d="M251.865 358.049L211.986 382.085L208.026 384.47V372.728L210.775 371.413L244.383 355.375C244.383 355.375 245.99 326.28 250.266 330.822C254.543 335.364 251.865 358.049 251.865 358.049Z" fill="#FDC2CC"/>
<path opacity="0.1" d="M211.987 382.085L208.026 384.47V372.728L210.775 371.413C210.957 374.992 211.361 378.556 211.987 382.085Z" fill="black"/>
<path d="M181.294 386.381L209.896 369.834C209.896 369.834 210.432 385.855 213.637 388.249C213.637 388.249 201.878 391.757 197.33 399.193L181.294 386.381Z" fill="#B45181"/>
<path opacity="0.1" d="M181.294 386.381L209.896 369.834C209.896 369.834 210.432 385.855 213.637 388.249C213.637 388.249 201.878 391.757 197.33 399.193L181.294 386.381Z" fill="black"/>
<path d="M251.61 400.49C251.61 400.49 238.007 406.409 228.997 408.584C226.969 409.195 224.849 409.438 222.735 409.303C216.588 408.233 224.343 400.534 224.343 400.534L227.574 400.034L244.927 397.334C244.927 397.334 246.797 370.641 250.003 372.781C253.208 374.92 251.61 400.49 251.61 400.49Z" fill="#FDC2CC"/>
<path d="M194.125 376.464C194.125 376.464 182.629 385.005 186.906 395.685C191.183 406.366 164.714 389.275 164.714 389.275C164.714 389.275 173.268 376.464 175.138 366.853C177.009 357.243 194.125 376.464 194.125 376.464Z" fill="#FDC2CC"/>
<path opacity="0.1" d="M193.273 470.562C188.301 468.692 183.104 467.484 177.817 466.967C170.089 466.09 163.011 464.608 158.91 462.977C159.336 461.301 159.67 459.603 159.911 457.891C159.911 457.891 192.79 464.564 194.16 465.634C194.66 466.055 194.116 468.177 193.273 470.562Z" fill="black"/>
<path opacity="0.1" d="M228.988 408.584C226.961 409.195 224.84 409.438 222.727 409.303C216.579 408.233 224.334 400.534 224.334 400.534L227.565 400.034C228.918 402.113 230.297 405.357 228.988 408.584Z" fill="black"/>
<path d="M175.41 381.269C175.41 381.269 164.986 381.006 161.245 385.276C157.504 389.547 158.303 401.06 158.303 401.06C158.303 401.06 157.522 424.114 163.379 437.012C163.572 437.429 163.594 437.904 163.441 438.337C163.379 438.494 163.379 438.398 163.379 438.398C163.379 438.398 159.638 455.217 155.897 458.154C152.156 461.092 163.915 464.564 177.851 466.16C191.788 467.756 197.365 471.763 197.365 471.763C197.365 471.763 199.771 469.133 199.999 463.223C200.227 457.312 196.284 414.371 196.284 414.371C196.284 414.371 210.985 418.107 219.811 413.573C219.811 413.573 223.824 415.713 227.565 409.838C231.306 403.963 224.931 397.562 224.931 397.562C224.931 397.562 219.047 403.437 202.739 395.694C186.431 387.951 180.477 381.006 175.41 381.269Z" fill="#B45181"/>
<path d="M95.4788 536.635H92.2734V541.177L95.4788 548.385C95.4788 548.385 99.7556 549.183 100.028 549.183C100.3 549.183 103.769 548.385 103.769 548.385L104.84 546.518C104.84 546.518 93.0726 541.967 95.4788 536.635Z" fill="#E6E6F0"/>
<path d="M195.995 540.906L191.183 551.586L211.504 561.232L227.548 561.767C227.548 561.767 228.883 558.031 223.535 556.163L219.258 555.366C219.258 555.366 213.646 545.22 213.111 540.458C213.111 540.458 207.763 541.528 206.963 545.527C206.955 545.439 199.473 549.175 195.995 540.906Z" fill="#B45181"/>
<path d="M93.0723 535.566L91.4389 536.898L84.2554 542.773L100.827 564.695C100.827 564.695 110.179 568.703 114.465 564.695C114.465 564.695 117.099 562.065 111.259 559.89C111.259 559.89 106.71 560.688 106.71 556.155C106.71 551.621 107.782 546.816 109.345 545.746C109.345 545.746 105.332 544.413 104.269 545.483C103.451 546.383 102.733 547.368 102.126 548.421C102.126 548.421 92.5366 544.641 93.0723 535.566Z" fill="#B45181"/>
<path opacity="0.1" d="M174.611 367.388C174.34 368.742 173.982 370.078 173.54 371.387C174.929 374.722 177.565 377.386 180.888 378.812C184.212 380.238 187.962 380.314 191.341 379.024C192.046 378.298 192.8 377.621 193.598 376.999C193.598 376.999 176.482 357.777 174.611 367.388Z" fill="black"/>
<path opacity="0.1" d="M173.136 403.042C173.136 403.042 181.426 413.985 193.457 414.257L173.136 403.042Z" fill="black"/>
<g opacity="0.1">
<path opacity="0.1" d="M222.682 413.758C222.513 413.71 222.349 413.649 222.19 413.573C221.933 413.708 221.669 413.833 221.4 413.95C221.834 413.942 222.265 413.877 222.682 413.758Z" fill="black"/>
<path opacity="0.1" d="M225.527 398.658C225.236 398.285 224.926 397.928 224.596 397.588C224.596 397.588 222.84 399.342 218.502 399.675C220.892 399.912 223.303 399.563 225.527 398.658Z" fill="black"/>
<path opacity="0.1" d="M198.664 414.371L198.717 414.941C202.243 415.594 205.827 415.887 209.413 415.818C205.791 415.687 202.191 415.202 198.664 414.371Z" fill="black"/>
<path opacity="0.1" d="M180.222 466.178C166.321 464.573 154.562 461.109 158.268 458.172C161.974 455.234 165.75 438.415 165.75 438.415C165.75 438.415 165.75 438.512 165.811 438.354C165.965 437.922 165.943 437.446 165.75 437.03C159.892 424.096 160.674 401.078 160.674 401.078C160.674 401.078 159.875 389.599 163.616 385.294C166.4 382.111 172.89 381.453 176.025 381.322C175.732 381.299 175.439 381.299 175.146 381.322C175.146 381.322 164.722 381.059 160.981 385.329C157.24 389.599 158.04 401.113 158.04 401.113C158.04 401.113 157.258 424.166 163.115 437.065C163.309 437.481 163.331 437.957 163.177 438.389C163.115 438.547 163.115 438.451 163.115 438.451C163.115 438.451 159.401 455.217 155.625 458.154C151.848 461.092 163.642 464.564 177.579 466.16C191.516 467.756 197.092 471.763 197.092 471.763C197.372 471.428 197.619 471.067 197.83 470.685C195.116 469.378 189.531 467.23 180.222 466.178Z" fill="black"/>
</g>
<path d="M186.905 379.401C194.583 379.401 200.807 373.187 200.807 365.52C200.807 357.854 194.583 351.639 186.905 351.639C179.228 351.639 173.004 357.854 173.004 365.52C173.004 373.187 179.228 379.401 186.905 379.401Z" fill="#FDC2CC"/>
<path opacity="0.1" d="M206.691 359.312C205.54 362.188 202.107 363.275 199.095 364.021C194.791 365.073 190.155 366.108 186.036 364.477C185.502 364.178 184.887 364.058 184.28 364.135C183.79 364.331 183.382 364.686 183.12 365.143C178.58 371.597 179.318 380.199 178.141 388.004C177.772 390.432 177.149 392.94 175.507 394.755C172.31 398.263 166.277 398.131 163.335 401.858C161.394 404.314 161.377 407.725 161.394 410.855C161.394 414.193 161.365 417.534 161.306 420.878C161.254 423.07 161.148 425.341 160.156 427.288C158.47 430.585 154.711 432.155 151.243 433.426C149.082 434.233 146.852 435.048 144.533 434.829C142.215 434.61 139.896 433.075 139.598 430.76C139.185 427.621 142.426 425.429 144.656 423.167C148.222 419.563 149.688 414.319 149.82 409.25C149.945 407.203 149.646 405.153 148.942 403.226C148.125 401.236 146.667 399.561 145.789 397.597C143.084 391.546 146.421 384.549 150.417 379.252C154.413 373.956 159.322 368.791 160.174 362.223C160.248 360.802 160.451 359.39 160.78 358.005C161.394 356.094 162.852 350.815 164.459 349.605C167.032 347.67 170.053 346.415 173.241 345.957C175.709 345.597 178.229 345.729 180.679 345.255C183.542 344.703 186.203 343.344 189.066 342.835C195.257 341.739 201.975 348.921 204.689 354.585C205.435 356.322 207.393 357.549 206.691 359.312Z" fill="black"/>
<path d="M206.691 358.777C205.54 361.653 202.107 362.741 199.095 363.486C194.791 364.538 190.155 365.573 186.036 363.942C185.502 363.643 184.887 363.523 184.28 363.6C183.79 363.796 183.382 364.151 183.12 364.608C178.58 371.062 179.318 379.664 178.141 387.469C177.772 389.898 177.149 392.406 175.507 394.221C172.31 397.728 166.277 397.597 163.335 401.323C161.394 403.779 161.377 407.19 161.394 410.32C161.394 413.658 161.365 416.999 161.306 420.343C161.254 422.535 161.148 424.806 160.156 426.753C158.47 430.05 154.711 431.62 151.243 432.891C149.082 433.698 146.852 434.514 144.533 434.294C142.215 434.075 139.896 432.541 139.598 430.226C139.185 427.086 142.426 424.894 144.656 422.632C148.222 419.028 149.688 413.784 149.82 408.716C149.945 406.669 149.646 404.618 148.942 402.691C148.125 400.701 146.667 399.026 145.789 397.062C143.084 391.011 146.421 384.014 150.417 378.717C154.413 373.421 159.322 368.256 160.174 361.688C160.248 360.267 160.451 358.855 160.78 357.471C161.394 355.559 162.852 350.28 164.459 349.07C167.032 347.135 170.053 345.88 173.241 345.422C175.709 345.063 178.229 345.194 180.679 344.721C183.542 344.168 186.203 342.809 189.066 342.3C195.257 341.204 201.975 348.386 204.689 354.051C205.435 355.787 207.393 357.015 206.691 358.777Z" fill="#F569BC"/>
<path d="M423.898 287.719L394.907 463.475L322.335 477.868L252.893 452.888L250.265 274.775L423.898 287.719Z" fill="#E44D26"/>
<path d="M323.559 462.825L382.198 451.208L406.949 301.006L335.999 295.717L323.559 462.825Z" fill="#F16529"/>
<path d="M302.021 336.834L332.768 339.126L334.384 317.422L279.887 313.359L279.972 319.223L280.866 379.429L329.508 383.055L331.124 361.35L302.36 359.206L302.021 336.834ZM302.884 391.983L281.086 390.358L281.59 424.666L325.138 440.357L325.242 440.365L326.928 417.716L326.835 417.71L303.114 409.375L302.884 391.983Z" fill="#EBEBEB"/>
<path d="M270.008 227.886L281.053 228.709L280.242 239.603L290.342 240.356L291.153 229.462L302.197 230.285L299.741 263.288L288.696 262.465L289.518 251.415L279.418 250.663L278.596 261.712L267.551 260.889L270.008 227.886ZM315.905 242.314L306.178 241.589L306.993 230.643L337.491 232.916L336.676 243.862L326.949 243.137L325.307 265.194L314.273 264.372L315.915 242.314L315.905 242.314ZM342.338 233.278L353.86 234.137L360.087 246.264L368.03 235.193L379.552 236.052L377.095 269.055L366.092 268.235L367.309 251.878L358.838 263.045L358.651 263.031L351.915 250.731L350.698 267.087L339.881 266.281L342.338 233.278ZM385.043 236.461L396.088 237.285L394.443 259.373L410.014 260.534L409.202 271.438L382.618 269.456L385.074 236.464L385.043 236.461Z" fill="#3ECE6F"/>
<path d="M329.425 383.049L356.186 385.044L351.568 413.008L326.844 417.731L325.159 440.358L370.64 431.346L371.235 427.701L380.596 370.938L381.559 365.152L331.038 361.386L329.422 383.09L329.425 383.049ZM332.699 339.069L332.695 339.121L385.199 343.035L385.999 338.186L387.856 327.255L388.809 321.469L334.312 317.406L332.7 339.059L332.699 339.069Z" fill="white"/>
<path d="M638.528 264.982C638.528 264.982 604.824 269.656 597.798 268.253L579.076 250.488C579.076 250.488 561.284 264.044 589.377 272.927L641.804 279.004L638.528 264.982Z" fill="#FDC2CC"/>
<path opacity="0.05" d="M638.528 264.982C638.528 264.982 604.824 269.656 597.798 268.253L579.076 250.488C579.076 250.488 561.284 264.044 589.377 272.927L641.804 279.004L638.528 264.982Z" fill="black"/>
<path d="M518.065 352.367L445.229 332.199L429 150.421H607.349L591.103 332.173L518.065 352.367Z" fill="#264DE4"/>
<path d="M577.193 320.607L591.077 165.293H518.188V336.908L577.193 320.607Z" fill="#2965F1"/>
<path d="M466.252 232.682L468.255 254.972H518.223V232.682H466.252ZM462.23 187.557L464.259 209.847H518.214V187.557H462.187H462.23ZM518.214 290.582H518.118L493.248 283.874L491.658 266.091H469.203L472.329 301.096L518.065 313.802H518.17L518.214 290.582Z" fill="#EBEBEB"/>
<path d="M470.977 101H498.016V112.294H482.279V123.589H498.016V134.883H470.977V101ZM503.47 101H530.509V110.821H514.737V112.785H530.474V135.374H503.426V125.062H519.163V123.097H503.426V101H503.47ZM535.962 101H563.001V110.821H547.185V112.785H562.922V135.374H535.874V125.062H551.611V123.097H535.874V101H535.962Z" fill="#3ECE6F"/>
<path d="M570 232.682L574.031 187.557H518.065V209.847H549.53L547.501 232.646H518.065V254.937H545.561L542.926 283.874L518.065 290.6V313.793L563.836 301.122L564.169 297.352L569.438 238.653L569.983 232.664L570 232.682Z" fill="white"/>
<path d="M705.788 213.895C704.075 208.888 701.608 202.496 699.641 201.04C699.522 200.945 699.392 200.866 699.254 200.803H699.008V194.621L694.389 195.358C693.648 193.123 693.087 190.833 692.712 188.509C693.157 188.954 693.724 189.257 694.341 189.38C694.959 189.504 695.599 189.442 696.181 189.202C696.102 189.079 696.04 188.948 695.97 188.816L696.181 188.729C695.454 187.447 695.069 186.001 695.065 184.528C695.104 183.185 695.319 181.852 695.706 180.565C696.532 177.715 697.928 175.049 698.71 172.191C699.209 170.345 699.446 168.438 699.412 166.526C699.436 163.287 698.696 160.088 697.252 157.187C696.894 156.352 696.332 155.62 695.619 155.056C694.969 154.697 694.3 154.372 693.616 154.083C692.471 153.313 691.485 152.33 690.71 151.189C687.429 147.201 683.037 144.274 678.09 142.78C676.802 142.302 675.406 142.193 674.059 142.464C670.959 143.341 669.827 147.138 667.315 149.146C665.093 150.9 662.046 151.102 659.271 151.698C656.422 152.182 653.8 153.554 651.78 155.617C650.467 157.116 649.751 159.045 649.769 161.037C649.693 161.966 649.858 162.899 650.247 163.746C650.636 164.594 651.236 165.328 651.991 165.877C652.849 166.441 653.822 166.808 654.839 166.952C655.856 167.096 656.893 167.013 657.874 166.71C657.108 169.355 656.896 172.129 657.254 174.86C657.612 177.59 658.531 180.217 659.953 182.575C661.375 184.934 663.271 186.974 665.52 188.567C667.769 190.16 670.323 191.272 673.023 191.833L673.568 192.797C675.228 195.89 676.488 199.182 677.317 202.592C673.067 205.004 668.421 207.257 665.62 207.468C665.509 208.561 665.306 209.643 665.014 210.703C664.36 213.365 663.101 215.84 661.335 217.938C657.523 222.217 640.372 254.574 640.372 254.574C640.372 254.574 639.828 255.863 638.95 258.081C628.297 259.388 610.918 261.273 606.062 260.3L587.005 242.218C587.005 242.218 580.858 246.91 581.385 252.61L577.951 249.348C577.951 249.348 559.843 263.141 588.437 272.146L631.942 277.189C627.797 289.675 623.933 304.205 625.127 312.115H625.487C626.319 312.113 627.15 312.049 627.972 311.922L627.893 313.325L623.705 388.237C623.705 388.237 622.747 402.03 635.613 408.221C635.613 408.221 651.341 454.371 645.141 459.606C645.141 459.606 645.879 459.992 647.117 460.536L634.181 471.935C634.181 471.935 624.653 474.312 619.41 473.838C618.489 473.713 617.553 473.93 616.783 474.45C616.012 474.969 615.459 475.753 615.23 476.653C615.23 476.749 615.23 476.846 615.177 476.951V477.074C615.177 477.17 615.177 477.276 615.177 477.381C615.177 477.486 615.177 477.46 615.177 477.495C615.177 477.53 615.177 477.67 615.177 477.758V477.872C615.177 477.977 615.177 478.074 615.239 478.179V478.293C615.268 478.404 615.303 478.512 615.344 478.617V478.723C615.388 478.828 615.441 478.933 615.494 479.038V479.108C615.555 479.214 615.617 479.319 615.687 479.424L615.748 479.512C615.824 479.623 615.909 479.734 616.003 479.845L616.073 479.933C616.17 480.047 616.275 480.152 616.389 480.266H616.442L616.793 480.564L616.872 480.625L617.303 480.932L617.408 481.002L617.909 481.292H617.988L618.523 481.555H618.602L619.226 481.809L619.358 481.862L620.051 482.09H620.165L620.912 482.283H620.973L621.852 482.449H622.018L622.897 482.581H623.063L624.073 482.677C626.032 482.826 628.675 482.879 631.731 482.87C631.731 482.87 631.731 482.949 631.731 482.984C631.731 483.019 631.731 483.16 631.731 483.247V483.361C631.731 483.466 631.731 483.563 631.793 483.668V483.782C631.822 483.893 631.857 484.001 631.898 484.107V484.212C631.942 484.317 631.995 484.422 632.047 484.527V484.598C632.109 484.703 632.17 484.808 632.24 484.913L632.302 485.001C632.378 485.112 632.463 485.223 632.557 485.334L632.627 485.422C632.723 485.536 632.829 485.641 632.943 485.755H632.987L633.338 486.053L633.417 486.115L633.847 486.422L633.953 486.492L634.445 486.781H634.524L635.059 487.044H635.138L635.762 487.298L635.894 487.351L636.587 487.579H636.702L637.448 487.772H637.51L638.388 487.939H638.555L639.433 488.07H639.6L640.609 488.166C653.001 489.122 692.545 486.264 692.545 486.264V486.15V486.009C692.94 484.168 694.837 473.461 688.093 465.543C688.295 465.332 688.488 465.113 688.672 464.885C688.672 464.885 683.403 455.845 686.292 452.995C689.182 450.145 672.338 401.101 672.338 401.101C672.338 401.101 663.284 386.825 668.527 370.647C673.77 354.468 668.053 336.869 668.053 336.869C668.053 336.869 680.567 333.169 680.795 317.797C680.795 317.332 680.795 316.85 680.795 316.368C681.057 316.406 681.321 316.423 681.585 316.42C681.761 316.433 681.937 316.433 682.112 316.42C682.112 316.42 679.732 307.853 682.586 301.671C685.441 295.489 691.64 301.198 697.357 275.978C701.494 257.731 705.129 236.747 706.833 226.531C707.533 222.297 707.174 217.957 705.788 213.895ZM597.052 267.385L592.705 263.264C594.145 263.86 595.743 264.439 597.526 265.017L613.904 266.938C606.598 267.595 599.774 267.964 597.052 267.411V267.385Z" fill="url(#paint0_linear_32_1375)"/>
<path d="M650.709 454.757L634.322 469.243C634.322 469.243 624.96 471.585 619.814 471.111C614.668 470.638 612.323 479.056 624.495 479.994C636.666 480.932 675.517 478.126 675.517 478.126C675.517 478.126 679.258 463.167 668.026 454.757H650.709Z" fill="#47465A"/>
<path opacity="0.05" d="M650.709 454.757L634.322 469.243C634.322 469.243 624.96 471.585 619.814 471.111C614.668 470.638 612.323 479.056 624.495 479.994C636.666 480.932 675.517 478.126 675.517 478.126C675.517 478.126 679.258 463.167 668.026 454.757H650.709Z" fill="black"/>
<path opacity="0.3" d="M676.097 471.663C676.069 473.368 675.872 475.066 675.509 476.732C675.509 476.732 636.658 479.538 624.486 478.6C618.629 478.152 616.144 475.969 615.705 473.882C615.169 476.285 617.294 479.45 624.486 480.02C636.658 480.958 675.509 478.152 675.509 478.152C675.966 476.021 676.164 473.842 676.097 471.663Z" fill="white"/>
<path d="M669.888 189.772C669.888 189.772 680.189 204.258 676.439 214.079C672.689 223.9 696.101 203.793 696.101 203.793C696.101 203.793 688.61 190.649 692.36 176.619L669.888 189.772Z" fill="#FDC2CC"/>
<path d="M667.078 460.369L650.709 474.855C650.709 474.855 641.348 477.197 636.201 476.723C631.055 476.25 628.71 484.668 640.882 485.606C653.054 486.544 691.904 483.738 691.904 483.738C691.904 483.738 695.645 468.779 684.413 460.369H667.078Z" fill="#47465A"/>
<path d="M671.784 457.098C669.343 460.106 665.901 461.264 662.3 461.439C654.115 461.825 645.105 457.098 645.105 457.098C651.191 451.96 635.744 406.616 635.744 406.616C623.107 400.539 624.038 386.983 624.038 386.983L628.13 313.413L629.166 294.928L642.278 286.983L652.605 294.875L662.405 302.381C663.044 304.769 663.456 307.212 663.635 309.677C664.777 326.855 651.174 330.898 651.174 330.898C651.174 330.898 656.794 348.19 651.639 364.088C646.484 379.985 655.38 394.007 655.38 394.007C655.38 394.007 672.232 442.621 669.431 445.427C666.63 448.233 671.784 457.098 671.784 457.098Z" fill="#565171"/>
<path opacity="0.05" d="M671.784 457.098C669.343 460.106 665.901 461.264 662.3 461.439C654.115 461.825 645.105 457.098 645.105 457.098C651.191 451.96 635.744 406.616 635.744 406.616C623.107 400.539 624.038 386.983 624.038 386.983L628.13 313.413L629.166 294.928L642.278 286.983L652.605 294.875L662.405 302.381C663.044 304.769 663.456 307.212 663.635 309.677C664.777 326.855 651.174 330.898 651.174 330.898C651.174 330.898 656.794 348.19 651.639 364.088C646.484 379.985 655.38 394.007 655.38 394.007C655.38 394.007 672.232 442.621 669.431 445.427C666.63 448.233 671.784 457.098 671.784 457.098Z" fill="black"/>
<path d="M688.146 462.702C680.189 472.514 661.467 462.702 661.467 462.702C661.844 462.355 662.125 461.917 662.283 461.43C665.717 452.109 650.7 407.546 650.7 407.546C638.063 401.469 636.649 386.983 636.649 386.983L633.339 312.08L632.908 302.381L652.606 294.875L658.656 292.569L678.811 307.993C679.676 311.189 680.101 314.487 680.075 317.797C679.821 332.888 667.552 336.536 667.552 336.536C667.552 336.536 673.173 353.828 668.018 369.726C662.863 385.624 671.785 399.601 671.785 399.601C671.785 399.601 688.637 448.216 685.836 451.022C683.035 453.828 688.146 462.702 688.146 462.702Z" fill="#565171"/>
<path opacity="0.1" d="M680.075 317.797C676.027 317.218 667.833 312.352 663.627 309.712C662.02 308.704 660.992 308.028 660.992 308.028C660.992 308.028 656.777 296.34 645.545 305.222C641.891 308.186 637.765 310.516 633.338 312.115C631.648 312.713 629.904 313.15 628.131 313.421L629.167 294.937L642.278 286.992L652.606 294.884L658.656 292.578L678.811 307.993C679.676 311.189 680.101 314.487 680.075 317.797Z" fill="black"/>
<path d="M705.41 228.101C703.742 238.132 700.141 258.792 696.102 276.671C690.481 301.443 684.395 295.831 681.594 301.908C678.793 307.985 681.129 316.394 681.129 316.394C676.448 316.859 661.001 306.582 661.001 306.582C661.001 306.582 656.785 294.893 645.554 303.776C634.322 312.658 625.426 312.185 625.426 312.185C623.081 296.761 640.407 255.626 640.407 255.626C640.407 255.626 657.26 223.839 661.001 219.674C662.737 217.615 663.975 215.185 664.619 212.571C664.906 211.531 665.106 210.47 665.216 209.397C671.302 208.932 686.292 198.646 686.292 198.646L697.998 196.778V202.855C698.137 202.917 698.267 202.997 698.385 203.092C700.308 204.556 702.776 210.8 704.418 215.719C705.762 219.702 706.103 223.955 705.41 228.101Z" fill="#E1A0A7"/>
<path d="M650.708 271.997L644.658 271.296L598.281 265.921C570.179 257.038 587.98 243.481 587.98 243.481L606.703 261.247C612.104 262.325 633.294 259.809 642.787 258.616C645.633 258.248 647.433 258.002 647.433 258.002L650.708 271.997Z" fill="#FDC2CC"/>
<path opacity="0.1" d="M696.101 208.897C696.101 208.897 683.93 199.085 665.637 230.863C647.345 262.641 643.165 257.503 643.165 257.503C643.165 257.503 646.906 271.533 645.035 274.33C645.035 274.33 657.672 273.392 662.353 274.33C667.033 275.268 696.057 238.807 696.057 238.807C696.057 238.807 711.083 218.244 696.101 208.897Z" fill="black"/>
<path opacity="0.1" d="M695.636 207.029C695.636 207.029 683.464 197.217 665.207 228.995C646.95 260.773 642.734 255.635 642.734 255.635C642.734 255.635 657.242 271.524 661.923 272.462C666.603 273.4 695.627 236.94 695.627 236.94C695.627 236.94 710.618 216.377 695.636 207.029Z" fill="black"/>
<path opacity="0.1" d="M644.649 271.322C644.842 267.859 643.534 261.773 642.778 258.616C645.624 258.248 647.424 258.002 647.424 258.002L650.7 272.033L644.649 271.322Z" fill="black"/>
<path d="M696.101 207.959C696.101 207.959 683.93 198.146 665.637 229.933C647.345 261.72 643.165 256.573 643.165 256.573C643.165 256.573 646.906 270.603 645.035 273.4C645.035 273.4 657.672 272.462 662.353 273.4C667.033 274.339 696.057 237.878 696.057 237.878C696.057 237.878 711.083 217.306 696.101 207.959Z" fill="#E1A0A7"/>
<path opacity="0.1" d="M692.861 177.575L670.354 190.649C671.306 192.028 672.185 193.457 672.988 194.928C674.283 195.191 675.601 195.323 676.922 195.323C682.92 195.323 685.704 189.035 689.331 184.8C689.067 181.433 691.825 181.345 692.861 177.575Z" fill="black"/>
<path d="M676.439 194.411C687.299 194.411 696.102 185.621 696.102 174.777C696.102 163.934 687.299 155.144 676.439 155.144C665.58 155.144 656.777 163.934 656.777 174.777C656.777 185.621 665.58 194.411 676.439 194.411Z" fill="#FDC2CC"/>
<path opacity="0.1" d="M651.586 158.897C653.569 156.866 656.145 155.516 658.945 155.039C661.676 154.451 664.671 154.276 666.849 152.531C669.316 150.558 670.423 146.805 673.47 145.963C674.794 145.698 676.165 145.808 677.431 146.279C682.292 147.746 686.607 150.62 689.831 154.539C690.593 155.663 691.565 156.631 692.693 157.389C693.366 157.672 694.022 157.992 694.661 158.344C695.36 158.899 695.909 159.62 696.259 160.44C698.453 164.865 698.958 169.937 697.681 174.707C696.917 177.522 695.547 180.135 694.731 182.941C693.914 185.747 693.712 188.921 695.196 191.429C693.756 192.166 691.938 191.236 691.034 189.895C690.129 188.553 689.857 186.905 689.383 185.352C688.45 182.306 686.694 179.575 684.307 177.46C682.831 176.163 680.197 175.286 679.169 176.961C678.774 177.61 678.801 178.443 678.458 179.118C677.791 180.442 675.824 180.705 674.568 179.995C673.331 179.142 672.462 177.855 672.135 176.391C670.212 169.875 666.919 165.78 659.946 168.56C657.312 169.595 654.282 170.314 651.779 168.56C648.574 166.21 649.215 161.554 651.586 158.897Z" fill="black"/>
<path d="M651.586 158.424C653.569 156.393 656.145 155.042 658.945 154.565C661.676 153.978 664.671 153.802 666.849 152.057C669.316 150.084 670.423 146.331 673.47 145.489C674.794 145.225 676.165 145.334 677.431 145.805C682.292 147.272 686.607 150.147 689.831 154.065C690.593 155.19 691.565 156.157 692.693 156.915C693.366 157.199 694.022 157.518 694.661 157.871C695.36 158.426 695.909 159.146 696.259 159.967C698.453 164.392 698.958 169.463 697.681 174.234C696.917 177.049 695.547 179.662 694.731 182.468C693.914 185.274 693.712 188.448 695.196 190.956C693.756 191.693 691.938 190.763 691.034 189.421C690.129 188.08 689.857 186.431 689.383 184.879C688.45 181.832 686.694 179.102 684.307 176.987C682.831 175.689 680.197 174.812 679.169 176.487C678.774 177.136 678.801 177.969 678.458 178.644C677.791 179.969 675.824 180.232 674.568 179.521C673.331 178.669 672.462 177.382 672.135 175.917C670.212 169.402 666.919 165.307 659.946 168.087C657.312 169.122 654.282 169.841 651.779 168.087C648.574 165.745 649.215 161.089 651.586 158.424Z" fill="#8F5A6A"/>
<path opacity="0.05" d="M698.359 203.057H688.848C688.848 203.057 670.125 212.404 669.66 211.94C669.344 211.624 666.446 212.168 664.61 212.545C664.898 211.505 665.097 210.443 665.208 209.37C671.293 208.906 686.284 198.62 686.284 198.62L697.99 196.752V202.829C698.122 202.889 698.246 202.966 698.359 203.057Z" fill="black"/>
<path opacity="0.3" d="M692.474 477.267C692.447 478.972 692.25 480.669 691.886 482.335C691.886 482.335 653.035 485.141 640.864 484.203C635.006 483.756 632.521 481.572 632.082 479.485C631.546 481.888 633.672 485.054 640.864 485.623C653.035 486.562 691.886 483.756 691.886 483.756C692.344 481.624 692.541 479.446 692.474 477.267Z" fill="white"/>
<g opacity="0.05">
<path opacity="0.05" d="M641.101 303.311C634.787 308.309 629.202 310.326 625.531 311.203C625.531 311.554 625.602 311.896 625.654 312.229C625.654 312.229 634.55 312.694 645.782 303.819C647.522 302.33 649.58 301.257 651.798 300.68C649.347 299.479 645.852 299.558 641.101 303.311Z" fill="black"/>
<path opacity="0.05" d="M704.629 215.675C702.951 210.756 700.519 204.521 698.596 203.048C698.478 202.953 698.348 202.873 698.209 202.811C698.209 202.811 694.337 202.943 694.468 203.048C696.391 204.512 698.271 210.291 699.948 215.202C701.307 219.193 701.657 223.459 700.967 227.618C699.298 237.65 695.698 258.309 691.658 276.189C686.038 300.961 679.952 295.349 677.151 301.425C674.85 306.406 676 312.948 676.501 315.149C678.015 315.905 679.674 316.327 681.366 316.385C681.366 316.385 679.021 307.976 681.831 301.899C684.641 295.822 690.727 301.434 696.339 276.662C700.405 258.739 703.979 238.079 705.647 228.092C706.338 223.932 705.988 219.667 704.629 215.675Z" fill="black"/>
</g>
<path d="M532.752 406.438C534.362 405.128 535.535 403.361 536.116 401.37C536.555 399.353 535.694 396.942 533.762 396.205C531.602 395.381 529.293 396.872 527.545 398.389C525.797 399.906 523.786 401.624 521.494 401.3C522.672 400.234 523.554 398.881 524.052 397.373C524.551 395.866 524.65 394.255 524.34 392.698C524.24 392.052 523.967 391.446 523.549 390.944C522.346 389.664 520.177 390.216 518.737 391.225C514.17 394.434 512.897 400.625 512.871 406.202C512.414 404.194 512.8 402.098 512.783 400.063C512.765 398.029 512.203 395.679 510.464 394.609C509.386 394.031 508.175 393.744 506.952 393.776C504.897 393.697 502.613 393.908 501.208 395.407C499.452 397.266 499.917 400.397 501.437 402.422C502.956 404.448 505.257 405.754 507.382 407.175C509.085 408.186 510.538 409.568 511.632 411.217C511.761 411.446 511.867 411.687 511.948 411.936H524.814C527.696 410.47 530.367 408.62 532.752 406.438Z" fill="#3ECE6F"/>
<path d="M90.6719 351.24C92.2814 349.93 93.4544 348.162 94.0354 346.172C94.4744 344.155 93.6138 341.743 91.6818 341.007C89.5215 340.182 87.2119 341.673 85.4644 343.19C83.7168 344.707 81.7057 346.426 79.4137 346.101C80.5917 345.035 81.473 343.682 81.9717 342.175C82.4703 340.667 82.5693 339.056 82.259 337.499C82.1599 336.854 81.8867 336.247 81.4686 335.745C80.2655 334.465 78.0965 335.018 76.6562 336.026C72.0897 339.235 70.8163 345.426 70.79 351.003C70.3333 348.995 70.7197 346.899 70.7022 344.865C70.6846 342.831 70.1226 340.481 68.3838 339.411C67.3056 338.832 66.0947 338.545 64.8711 338.578C62.8161 338.499 60.5329 338.709 59.1278 340.209C57.3714 342.068 57.8369 345.198 59.3561 347.224C60.8754 349.249 63.1762 350.556 65.3014 351.977C67.0046 352.988 68.4575 354.369 69.5518 356.019C69.6805 356.248 69.7864 356.489 69.8679 356.738H82.7332C85.6157 355.271 88.2862 353.422 90.6719 351.24Z" fill="#3ECE6F"/>
<path d="M708.789 409.175C710.399 407.865 711.572 406.098 712.153 404.107C712.592 402.09 711.731 399.679 709.799 398.942C707.639 398.118 705.329 399.609 703.582 401.126C701.834 402.643 699.823 404.361 697.531 404.037C698.709 402.971 699.59 401.618 700.089 400.11C700.588 398.603 700.686 396.992 700.376 395.435C700.277 394.789 700.004 394.183 699.586 393.681C698.383 392.401 696.214 392.953 694.773 393.962C690.207 397.171 688.934 403.362 688.907 408.939C688.451 406.931 688.837 404.835 688.819 402.801C688.802 400.766 688.24 398.416 686.501 397.346C685.423 396.768 684.212 396.481 682.988 396.513C680.933 396.434 678.65 396.645 677.245 398.144C675.489 400.003 675.954 403.134 677.473 405.159C678.993 407.185 681.293 408.492 683.419 409.912C685.122 410.923 686.575 412.305 687.669 413.955C687.798 414.183 687.904 414.424 687.985 414.674H700.85C703.733 413.207 706.403 411.357 708.789 409.175Z" fill="#3ECE6F"/>
<path d="M298.672 537.24C300.281 535.93 301.454 534.162 302.035 532.172C302.474 530.155 301.614 527.743 299.682 527.007C297.522 526.182 295.212 527.673 293.464 529.19C291.717 530.707 289.706 532.426 287.414 532.101C288.592 531.035 289.473 529.682 289.972 528.175C290.47 526.667 290.569 525.056 290.259 523.499C290.16 522.854 289.887 522.247 289.469 521.745C288.266 520.465 286.096 521.018 284.656 522.026C280.09 525.235 278.816 531.426 278.79 537.003C278.333 534.995 278.72 532.899 278.702 530.865C278.685 528.831 278.123 526.481 276.384 525.411C275.306 524.832 274.095 524.545 272.871 524.578C270.816 524.499 268.533 524.709 267.128 526.209C265.371 528.068 265.837 531.198 267.356 533.224C268.875 535.249 271.176 536.556 273.301 537.977C275.005 538.988 276.457 540.369 277.552 542.019C277.68 542.248 277.786 542.489 277.868 542.738H290.733C293.616 541.271 296.286 539.422 298.672 537.24Z" fill="#3ECE6F"/>
<path d="M513.249 506.009C515.295 504.106 517.218 501.861 517.815 499.134C518.413 496.407 517.245 493.127 514.628 492.119C511.703 490.997 508.568 492.996 506.197 495.074C503.826 497.152 501.104 499.459 498.004 499.02C499.6 497.574 500.795 495.74 501.47 493.696C502.146 491.652 502.28 489.468 501.859 487.358C501.723 486.486 501.353 485.668 500.788 484.99C499.163 483.236 496.212 483.999 494.271 485.367C488.124 489.751 486.368 498.108 486.324 505.667C485.7 502.94 486.227 500.099 486.21 497.301C486.192 494.504 485.428 491.409 483.066 489.901C481.595 489.111 479.94 488.724 478.271 488.778C475.487 488.673 472.387 488.954 470.49 490.988C468.128 493.513 468.734 497.749 470.798 500.528C472.861 503.308 475.979 505.053 478.851 506.973C481.156 508.346 483.122 510.219 484.603 512.454C484.778 512.766 484.922 513.095 485.033 513.436H502.482C506.39 511.456 510.012 508.958 513.249 506.009Z" fill="#3ECE6F"/>
<path d="M66.4275 184.935C66.0085 184.954 65.5936 184.844 65.239 184.62C64.8845 184.396 64.6075 184.068 64.4455 183.681C64.2836 183.294 64.2444 182.867 64.3335 182.457C64.4225 182.047 64.6354 181.674 64.9434 181.389C64.9949 181.184 65.0318 181.037 65.0833 180.832C65.0648 180.787 65.0463 180.743 65.0276 180.698C64.605 179.701 63.8973 178.851 62.9933 178.255C62.0893 177.659 61.0293 177.343 59.9464 177.348C58.8636 177.352 57.8063 177.677 56.9072 178.28C56.0081 178.884 55.3074 179.739 54.893 180.74C53.237 184.732 51.1282 188.732 50.6103 192.954C50.3821 194.819 50.4794 196.711 50.8978 198.543C47.0013 190.053 44.9761 180.823 44.9594 171.481C44.9577 169.136 45.087 166.794 45.3468 164.464C45.5615 162.554 45.8597 160.658 46.2414 158.775C48.324 148.558 52.8004 138.982 59.3029 130.831C62.4509 129.112 64.9963 126.469 66.596 123.258C67.1755 122.104 67.585 120.873 67.8116 119.601C67.4564 119.648 67.0954 119.677 66.7402 119.701C66.6296 119.706 66.5131 119.712 66.4025 119.718L66.3607 119.72C65.9704 119.738 65.5832 119.642 65.2459 119.445C64.9086 119.248 64.6354 118.957 64.4594 118.608C64.2834 118.259 64.2119 117.867 64.2537 117.479C64.2954 117.09 64.4486 116.722 64.6947 116.418C64.848 116.23 65.0014 116.041 65.1548 115.852C65.3876 115.561 65.6263 115.276 65.8591 114.984C65.8859 114.957 65.9112 114.927 65.9347 114.897C66.2025 114.565 66.4702 114.239 66.7379 113.907C66.2487 113.148 65.5908 112.513 64.8156 112.05C62.1306 110.479 58.4277 111.569 56.4896 113.998C54.5457 116.427 54.1802 119.834 54.8568 122.867C55.522 125.448 56.6218 127.897 58.1088 130.11C57.9633 130.296 57.812 130.476 57.6665 130.663C55.0067 134.086 52.6888 137.761 50.746 141.636C51.2172 137.296 50.6511 132.905 49.0944 128.826C47.5169 125.025 44.5615 121.824 41.9588 118.538C38.8325 114.591 32.4256 116.317 31.877 121.322C31.8717 121.37 31.8666 121.418 31.8615 121.467C32.248 121.685 32.6263 121.916 32.9965 122.161C33.4615 122.471 33.8219 122.915 34.0305 123.433C34.2391 123.952 34.2861 124.522 34.1653 125.068C34.0446 125.614 33.7618 126.111 33.3539 126.493C32.9461 126.875 32.4322 127.126 31.8796 127.211L31.823 127.22C31.9612 128.613 32.2051 129.993 32.5525 131.348C33.5591 135.133 35.3367 138.668 37.7737 141.733C40.2108 144.798 43.2548 147.327 46.715 149.161C46.9421 149.277 47.1635 149.394 47.3906 149.504C45.4393 155.041 44.2162 160.808 43.7522 166.66C43.4895 170.112 43.5064 173.581 43.8028 177.03L43.7853 176.908C43.0384 173.072 40.9905 169.611 37.9876 167.11C33.5275 163.45 27.2277 162.103 22.4164 159.161C21.9051 158.833 21.3107 158.658 20.7032 158.657C20.0957 158.656 19.5005 158.828 18.9878 159.154C18.4752 159.48 18.0664 159.946 17.8097 160.496C17.5531 161.047 17.4592 161.659 17.5392 162.262C17.5457 162.305 17.5523 162.347 17.559 162.39C18.2761 162.682 18.9744 163.018 19.6498 163.397C20.0362 163.615 20.4146 163.846 20.7847 164.09C21.2498 164.401 21.6102 164.845 21.8188 165.363C22.0273 165.882 22.0743 166.452 21.9536 166.998C21.8329 167.544 21.5501 168.04 21.1422 168.423C20.7343 168.805 20.2204 169.056 19.6679 169.141L19.6112 169.15C19.5705 169.156 19.5356 169.161 19.4949 169.167C20.7212 172.092 22.4418 174.784 24.5813 177.125C27.2244 179.959 30.4184 182.223 33.9676 183.779C37.5168 185.335 41.3463 186.149 45.2214 186.172L45.2272 186.172C46.2809 190.742 47.8067 195.191 49.7801 199.446L66.026 199.44C66.0842 199.259 66.1366 199.073 66.1889 198.893C64.6852 198.988 63.1755 198.898 61.6935 198.626C62.8982 197.147 64.103 195.656 65.3078 194.176C65.3346 194.149 65.3599 194.12 65.3834 194.089C65.9945 193.332 66.6115 192.58 67.2226 191.823L67.2229 191.822C67.2546 189.502 66.9874 187.187 66.428 184.935L66.4275 184.935Z" fill="#3ECE6F"/>
<path d="M258.023 199.584C258.023 199.673 258.006 199.761 257.972 199.843C257.939 199.925 257.889 199.999 257.827 200.062C257.764 200.124 257.69 200.174 257.608 200.208C257.526 200.241 257.438 200.259 257.35 200.259L9.74514 200.355C9.56643 200.355 9.39503 200.285 9.26861 200.158C9.1422 200.032 9.07113 199.861 9.07106 199.682C9.07099 199.503 9.14193 199.332 9.26824 199.205C9.39455 199.079 9.5659 199.008 9.74461 199.008L257.349 198.911C257.438 198.911 257.525 198.928 257.607 198.962C257.689 198.995 257.763 199.045 257.826 199.107C257.889 199.17 257.938 199.244 257.972 199.326C258.006 199.408 258.023 199.496 258.023 199.584Z" fill="#CCCCCC"/>
<path d="M138.693 113.078C137.76 112.855 136.79 112.839 135.851 113.032C134.912 113.225 134.026 113.621 133.256 114.193C132.487 114.765 131.852 115.499 131.397 116.342C130.941 117.186 130.677 118.12 130.621 119.077L116.468 124.009L117.367 133.34L137.256 126.095C138.871 126.082 140.424 125.477 141.622 124.395C142.82 123.313 143.58 121.829 143.757 120.224C143.934 118.62 143.516 117.006 142.583 115.689C141.649 114.371 140.265 113.442 138.693 113.077L138.693 113.078Z" fill="#FFB6B6"/>
<path d="M115.634 140.211C110.007 144.136 100.092 146.146 86.5971 146.06C85.85 146.062 85.1105 145.909 84.4255 145.611C83.7406 145.312 83.125 144.875 82.6179 144.326C79.0055 140.568 79.1431 131.984 79.1653 131.155L75.2016 116.241C75.1166 116.013 72.9235 109.893 75.1506 105.619C75.6245 104.726 76.286 103.946 77.0897 103.333C77.8935 102.72 78.8204 102.288 79.8068 102.068C88.1762 99.8431 96.0532 122.245 97.0542 125.205L108.8 123.2L116.912 122.864L125.163 118.305L129.814 129.424L118.318 137.832C117.525 138.733 116.623 139.532 115.634 140.211Z" fill="#2F2E41"/>
<path d="M138.347 263.534L147 263.935L152.664 230.751L139.893 230.16L138.347 263.534Z" fill="#FFB6B6"/>
<path d="M136.399 259.166L150.115 258.984L149.843 264.844L162.431 274.428C163.053 274.902 163.507 275.561 163.727 276.311C163.947 277.061 163.922 277.861 163.655 278.596C163.389 279.33 162.894 279.96 162.244 280.393C161.594 280.827 160.822 281.041 160.041 281.005L143.757 280.249L141.219 274.323L139.854 280.068L133.715 279.784L136.399 259.166Z" fill="#2F2E41"/>
<path d="M228.657 192.254L231.806 184.185L202.18 168.199L187.22 177.609L228.657 192.254Z" fill="#FFB6B6"/>
<path d="M223.895 192.702L228.112 179.649L233.577 181.782L246.686 172.924C247.333 172.486 248.103 172.267 248.884 172.298C249.665 172.329 250.415 172.609 251.026 173.097C251.636 173.585 252.075 174.255 252.277 175.01C252.48 175.764 252.436 176.564 252.151 177.292L246.225 192.478L239.797 192.986L244.804 196.118L242.569 201.843L223.895 192.702Z" fill="#2F2E41"/>
<path d="M58.4879 168.308C58.4879 168.308 62.0904 191.248 79.0778 192.94C96.0652 194.632 111.72 186.973 111.72 186.973L159.277 172.306C159.277 172.306 209.873 186.66 218.368 188.922C218.368 188.922 224.221 175.622 224.024 174.764C222.215 166.862 219.863 172.209 219.863 172.209L166.063 148.448C166.063 148.448 157.569 146.187 142.849 152.421C128.13 158.655 88.6961 173.685 88.6961 173.685L58.4879 168.308Z" fill="#2F2E41"/>
<path d="M58.6833 166.902C58.6833 166.902 55.8612 194.385 72.4099 198.577C88.141 202.562 109.836 198.46 109.836 198.46L135.701 195.749C135.701 195.749 136.847 228.984 136.853 245.404C142.109 246.116 147.404 246.492 152.708 246.53C153.84 246.53 153.915 245.936 153.915 245.936L156.085 188.496C156.239 185.998 155.867 183.496 154.995 181.151C154.123 178.806 152.769 176.669 151.022 174.879C149.274 173.088 147.171 171.683 144.848 170.755C142.524 169.826 140.032 169.394 137.532 169.486C136.311 169.533 135.03 169.62 133.689 169.747C117.778 171.279 98.0218 168.043 98.0218 168.043L58.6833 166.902Z" fill="#2F2E41"/>
<path d="M104.565 127.015C104.565 127.015 111.298 167.636 106.76 170.88C102.221 174.125 95.9959 174.14 95.9959 174.14L94.5394 151.711L104.565 127.015Z" fill="#2F2E41"/>
<path d="M93.3418 77.1285L102.327 85.6599C106.503 89.6253 109.273 94.8444 110.215 100.526C111.157 106.207 110.221 112.041 107.548 117.142L103.258 125.331L93.3418 77.1285Z" fill="#2F2E41"/>
<path d="M91.3337 78.5643L103.509 92.4219C106.182 95.4632 107.838 99.2625 108.249 103.29C108.435 105.119 108.361 106.965 108.029 108.773L103.452 133.708L100.019 169.717C100.019 169.717 73.4078 177.791 70.6788 165.34C67.9498 152.889 91.3337 78.5643 91.3337 78.5643Z" fill="#6C63FF"/>
<path d="M79.9473 173.108C62.4508 170.2 58.1649 169.623 57.8979 169.521L57.6304 169.419L59.3799 158.895L66.7777 140.697C67.2563 134.745 70.372 126.679 68.5852 120.202C63.3908 101.373 71.8077 74.7596 75.6608 72.7195L86.3423 65.7112L90.094 69.1482L96.6004 78.2488C101.96 102.08 105.664 124.292 105.485 125.65L102.192 148.984L98.3041 157.935C86.5018 163.636 94.4443 175.519 79.9473 173.108Z" fill="#2F2E41"/>
<path d="M111.615 155.979L139.082 148.619L141.5 148.044L143.225 147.634L145.234 147.158L145.25 147.154C145.542 147.088 145.849 147.138 146.104 147.296L156.308 159.521C156.401 159.578 156.482 159.651 156.548 159.737C156.576 159.759 156.6 159.784 156.621 159.813C156.734 159.967 156.807 160.146 156.835 160.335C156.862 160.524 156.842 160.717 156.778 160.896C156.713 161.076 156.605 161.237 156.463 161.365C156.322 161.493 156.151 161.584 155.966 161.631L114.99 171.077C114.778 171.126 114.556 171.113 114.351 171.04C114.145 170.968 113.965 170.839 113.83 170.668L113.413 170.129L111.141 159.21L110.98 157.792C110.877 157.661 110.804 157.509 110.767 157.346C110.701 157.053 110.753 156.745 110.911 156.489C111.07 156.234 111.322 156.05 111.615 155.979Z" fill="#E6E6E6"/>
<path opacity="0.17" d="M113.413 170.128L113.832 170.669C113.967 170.839 114.147 170.968 114.352 171.04C114.556 171.113 114.777 171.126 114.989 171.078L155.966 161.631C156.151 161.585 156.322 161.494 156.464 161.366C156.606 161.238 156.713 161.077 156.778 160.897C156.843 160.718 156.862 160.525 156.835 160.336C156.807 160.147 156.734 159.968 156.62 159.815C156.601 159.786 156.576 159.76 156.549 159.738L113.413 170.128Z" fill="black"/>
<path d="M145.03 147.078L144.268 94.8359C144.237 94.5214 144.332 94.2074 144.532 93.9628L149.779 83.0319L150.324 82.369C150.527 82.1265 150.817 81.9731 151.131 81.9418L152.274 81.8349C152.589 81.8038 152.903 81.8991 153.148 82.0997C153.392 82.3004 153.547 82.59 153.578 82.9048L154.629 138.181L154.63 138.185L155.142 143.507L155.749 149.827L155.751 149.835L156.698 159.668C156.716 159.836 156.697 160.006 156.642 160.167C156.588 160.327 156.499 160.473 156.383 160.595C156.269 160.72 156.13 160.818 155.976 160.884C155.821 160.951 155.654 160.983 155.486 160.98L154.742 160.965C154.457 160.958 154.183 160.85 153.97 160.661L153.554 160.287L153.361 160.112L145.425 147.855C145.199 147.655 145.058 147.378 145.03 147.078Z" fill="#E6E6E6"/>
<path opacity="0.17" d="M149.781 83.0318L153.36 160.114L153.554 160.287L153.969 160.66C154.182 160.849 154.456 160.957 154.742 160.964L155.486 160.979C155.655 160.982 155.822 160.949 155.977 160.883C156.132 160.816 156.271 160.718 156.385 160.594C156.5 160.471 156.587 160.324 156.641 160.165C156.695 160.005 156.714 159.836 156.698 159.668L153.577 82.9064C153.547 82.5914 153.392 82.3013 153.148 82.1C152.904 81.8986 152.59 81.8025 152.275 81.8327L151.13 81.9428C150.974 81.9572 150.823 82.0024 150.685 82.0758C150.547 82.1492 150.425 82.2493 150.327 82.3702L149.781 83.0318Z" fill="black"/>
<path d="M150.081 86.1464L145.283 98.0022L145.891 133.463L151.093 140.98L150.081 86.1464Z" fill="#6C63FF"/>
<path d="M114.78 155.665C114.518 155.74 114.295 155.916 114.163 156.155C114.03 156.394 113.997 156.676 114.072 156.939L116.191 165.755L118.173 165.189L116.054 156.373C115.979 156.111 115.803 155.888 115.564 155.756C115.325 155.623 115.043 155.59 114.78 155.665Z" fill="#2F2E41"/>
<path d="M118.745 154.535C118.482 154.61 118.26 154.786 118.127 155.025C117.994 155.264 117.962 155.545 118.036 155.808L118.489 157.394L120.471 156.829L120.018 155.243C119.943 154.98 119.767 154.758 119.528 154.625C119.289 154.492 119.008 154.46 118.745 154.535Z" fill="#2F2E41"/>
<path d="M122.709 153.404C122.446 153.479 122.224 153.655 122.091 153.894C121.958 154.133 121.926 154.415 122.001 154.678L122.453 156.263L124.435 155.698L123.983 154.112C123.908 153.85 123.731 153.627 123.493 153.495C123.254 153.362 122.972 153.329 122.709 153.404Z" fill="#2F2E41"/>
<path d="M126.673 152.274C126.41 152.349 126.188 152.525 126.055 152.764C125.922 153.003 125.89 153.284 125.965 153.547L126.417 155.133L128.399 154.568L127.947 152.982C127.872 152.719 127.695 152.497 127.457 152.364C127.218 152.231 126.936 152.199 126.673 152.274Z" fill="#2F2E41"/>
<path d="M130.637 151.143C130.375 151.218 130.152 151.395 130.02 151.633C129.887 151.872 129.854 152.154 129.929 152.417L130.381 154.003L132.363 153.437L131.911 151.852C131.836 151.589 131.66 151.367 131.421 151.234C131.182 151.101 130.9 151.068 130.637 151.143Z" fill="#2F2E41"/>
<path d="M134.602 150.013C134.339 150.088 134.117 150.264 133.984 150.503C133.851 150.742 133.818 151.023 133.893 151.286L134.346 152.872L136.328 152.307L135.875 150.721C135.8 150.458 135.624 150.236 135.385 150.103C135.146 149.97 134.865 149.938 134.602 150.013Z" fill="#2F2E41"/>
<path d="M138.566 148.882C138.303 148.957 138.081 149.134 137.948 149.372C137.815 149.611 137.782 149.893 137.857 150.156L138.309 151.742L140.291 151.176L139.839 149.591C139.764 149.328 139.588 149.106 139.349 148.973C139.11 148.84 138.828 148.807 138.566 148.882Z" fill="#2F2E41"/>
<path d="M142.529 147.752C142.267 147.827 142.044 148.003 141.912 148.242C141.779 148.481 141.746 148.763 141.821 149.026L142.273 150.611L144.255 150.046L143.803 148.46C143.728 148.198 143.552 147.975 143.313 147.842C143.074 147.71 142.792 147.677 142.529 147.752Z" fill="#2F2E41"/>
<path d="M119.578 158.15C119.316 158.225 119.093 158.401 118.96 158.64C118.828 158.879 118.795 159.16 118.87 159.423L119.322 161.009L121.304 160.444L120.852 158.858C120.777 158.595 120.601 158.373 120.362 158.24C120.123 158.107 119.841 158.075 119.578 158.15Z" fill="#2F2E41"/>
<path d="M123.542 157.019C123.279 157.094 123.057 157.271 122.924 157.509C122.791 157.748 122.759 158.03 122.834 158.293L123.286 159.879L125.268 159.313L124.816 157.728C124.741 157.465 124.564 157.243 124.326 157.11C124.087 156.977 123.805 156.944 123.542 157.019Z" fill="#2F2E41"/>
<path d="M127.507 155.889C127.244 155.964 127.022 156.14 126.889 156.379C126.756 156.618 126.723 156.9 126.798 157.163L127.25 158.748L129.232 158.183L128.78 156.597C128.705 156.335 128.529 156.112 128.29 155.979C128.051 155.847 127.769 155.814 127.507 155.889Z" fill="#2F2E41"/>
<path d="M131.471 154.758C131.208 154.833 130.986 155.01 130.853 155.249C130.72 155.487 130.688 155.769 130.762 156.032L131.215 157.618L133.197 157.052L132.745 155.467C132.67 155.204 132.493 154.982 132.254 154.849C132.016 154.716 131.734 154.684 131.471 154.758Z" fill="#2F2E41"/>
<path d="M135.435 153.628C135.172 153.703 134.95 153.879 134.817 154.118C134.684 154.357 134.651 154.639 134.726 154.902L135.179 156.487L137.161 155.922L136.708 154.336C136.633 154.074 136.457 153.851 136.218 153.718C135.979 153.586 135.698 153.553 135.435 153.628Z" fill="#2F2E41"/>
<path d="M139.399 152.497C139.136 152.572 138.914 152.749 138.781 152.988C138.648 153.226 138.616 153.508 138.691 153.771L139.143 155.357L141.125 154.792L140.673 153.206C140.598 152.943 140.421 152.721 140.183 152.588C139.944 152.455 139.662 152.423 139.399 152.497Z" fill="#2F2E41"/>
<path d="M143.363 151.367C143.1 151.442 142.878 151.618 142.745 151.857C142.612 152.096 142.58 152.378 142.655 152.641L143.107 154.226L145.089 153.661L144.637 152.075C144.562 151.813 144.385 151.59 144.146 151.458C143.908 151.325 143.626 151.292 143.363 151.367Z" fill="#2F2E41"/>
<path d="M120.412 161.765C120.149 161.84 119.927 162.016 119.794 162.255C119.661 162.494 119.629 162.776 119.703 163.038L120.156 164.624L122.138 164.059L121.685 162.473C121.61 162.21 121.434 161.988 121.195 161.855C120.956 161.722 120.675 161.69 120.412 161.765Z" fill="#2F2E41"/>
<path d="M124.376 160.634C124.113 160.709 123.891 160.886 123.758 161.125C123.625 161.363 123.593 161.645 123.668 161.908L124.12 163.494L126.102 162.928L125.65 161.343C125.575 161.08 125.398 160.858 125.16 160.725C124.921 160.592 124.639 160.56 124.376 160.634Z" fill="#2F2E41"/>
<path d="M128.34 159.504C128.077 159.579 127.855 159.755 127.722 159.994C127.589 160.233 127.557 160.515 127.632 160.778L128.084 162.363L130.066 161.798L129.614 160.212C129.539 159.95 129.362 159.727 129.124 159.595C128.885 159.462 128.603 159.429 128.34 159.504Z" fill="#2F2E41"/>
<path d="M132.304 158.373C132.042 158.449 131.819 158.625 131.687 158.864C131.554 159.103 131.521 159.384 131.596 159.647L132.048 161.233L134.03 160.668L133.578 159.082C133.503 158.819 133.327 158.597 133.088 158.464C132.849 158.331 132.567 158.299 132.304 158.373Z" fill="#2F2E41"/>
<path d="M136.268 157.243C136.005 157.318 135.783 157.494 135.65 157.733C135.518 157.972 135.485 158.254 135.56 158.517L136.012 160.102L137.994 159.537L137.542 157.951C137.467 157.689 137.291 157.466 137.052 157.334C136.813 157.201 136.531 157.168 136.268 157.243Z" fill="#2F2E41"/>
<path d="M140.233 156.113C139.97 156.188 139.748 156.364 139.615 156.603C139.482 156.842 139.449 157.123 139.524 157.386L139.976 158.972L141.958 158.407L141.506 156.821C141.431 156.558 141.255 156.336 141.016 156.203C140.777 156.07 140.495 156.038 140.233 156.113Z" fill="#2F2E41"/>
<path d="M144.196 154.982C143.934 155.057 143.711 155.234 143.579 155.472C143.446 155.711 143.413 155.993 143.488 156.256L143.94 157.842L145.922 157.276L145.47 155.691C145.395 155.428 145.219 155.206 144.98 155.073C144.741 154.94 144.459 154.907 144.196 154.982Z" fill="#2F2E41"/>
<path d="M132.546 148.145C132.014 147.347 131.314 146.676 130.494 146.178C129.674 145.68 128.756 145.368 127.803 145.264C126.849 145.16 125.885 145.266 124.977 145.575C124.07 145.884 123.241 146.388 122.549 147.052L108.82 141.039L103.131 148.491L122.638 156.709C123.831 157.798 125.381 158.411 126.995 158.433C128.609 158.455 130.175 157.883 131.396 156.828C132.618 155.772 133.409 154.305 133.621 152.705C133.833 151.104 133.45 149.482 132.546 148.145Z" fill="#FFB6B6"/>
<path d="M97.1873 152.348C90.3929 151.397 81.7576 146.127 71.9248 136.883C71.3755 136.377 70.9375 135.762 70.6384 135.077C70.3393 134.393 70.1856 133.653 70.1871 132.906C70.0961 127.694 76.0357 121.496 76.616 120.903L83.8557 107.275C83.9485 107.05 86.5036 101.072 91.0438 99.454C91.9985 99.1219 93.0138 99.0003 94.0199 99.0977C95.0261 99.1951 95.9992 99.5092 96.8725 100.018C104.52 104.081 95.0554 125.86 93.7756 128.711L103.749 135.231L109.924 140.502L119.073 142.773L114.919 154.087L100.773 152.43C99.579 152.551 98.3746 152.523 97.1873 152.348Z" fill="#2F2E41"/>
<path d="M110.544 49.2789C111.686 39.7208 105.031 31.0673 95.6817 29.9508C86.332 28.8343 77.8272 35.6775 76.6858 45.2356C75.5444 54.7937 82.1986 63.4472 91.5483 64.5637C100.898 65.6803 109.403 58.837 110.544 49.2789Z" fill="#FFB6B6"/>
<path d="M49.2107 34.3419C52.489 31.3298 54.3888 27.0409 57.1443 23.505C59.8998 19.969 64.3103 17.0365 68.4335 18.4284C71.2758 19.3878 73.2217 22.2294 74.0198 25.2337C74.8177 28.2379 74.6538 31.4264 74.4837 34.5488C75.1735 28.1727 80.1058 22.5007 86.1275 21.1589C92.1487 19.8172 98.794 22.9094 101.814 28.4587C103.574 27.1792 105.743 26.5899 107.908 26.8025C110.074 27.0152 112.086 28.0149 113.564 29.6123C116.465 32.9031 116.524 38.5143 113.693 41.9318C110.862 45.3494 105.524 46.111 101.974 43.6041L100.484 44.6784C100.924 47.4107 99.0863 50.3567 96.5049 51.0572C94.4117 51.6254 91.6086 51.1545 90.6111 53.1608C89.9141 54.5627 90.7035 56.2422 91.6074 57.4913C92.511 58.7405 93.6049 60.0496 93.5437 61.6215C93.4515 63.9932 90.8272 65.3491 88.5612 65.5811C83.097 66.1408 77.4867 62.9715 74.9804 57.909C74.9321 57.8114 74.8787 57.713 74.8201 57.6139C73.3621 55.2079 72.4099 52.5298 72.0219 49.7433C71.6338 46.9568 71.818 44.1205 72.563 41.4075C72.8652 40.3427 72.7878 39.5146 72.0701 39.1682C68.9682 37.6709 59.6274 38.9206 56.6332 40.7006C53.6387 42.4806 51.1093 45.0075 48.1996 46.9356C45.2898 48.8637 41.7166 50.1922 38.4352 49.1807C35.8071 48.3706 33.7545 46.1472 32.4981 43.6111C31.242 41.075 30.6847 38.2271 30.2177 35.4072C35.7485 39.5484 44.0505 39.0827 49.2107 34.3419Z" fill="#8F5A6A"/>
</g>
<defs>
<linearGradient id="paint0_linear_32_1375" x1="51360.2" y1="269039" x2="51360.2" y2="132279" gradientUnits="userSpaceOnUse">
<stop stop-color="#808080" stop-opacity="0.25"/>
<stop offset="0.54" stop-color="#808080" stop-opacity="0.12"/>
<stop offset="1" stop-color="#808080" stop-opacity="0.1"/>
</linearGradient>
<clipPath id="clip0_32_1375">
<rect width="743" height="683" fill="white"/>
</clipPath>
</defs>
</svg>
