<svg width="112" height="23" viewBox="0 0 112 23" fill="none" xmlns="http://www.w3.org/2000/svg">
<path d="M79.4099 16.9044L73.0755 22.05L75.187 13.9657L68.8525 8.82002L76.594 8.08435L79.4099 0L82.2259 8.08435L89.9673 8.82002L83.6329 13.9657L85.7443 22.05L79.4099 16.9044Z" fill="#FC8E03"/>
<path d="M56.4592 16.9044L50.1248 22.05L52.2363 13.9657L45.9019 8.82002L53.6433 8.08435L56.4592 0L59.2752 8.08435L67.0166 8.82002L60.6822 13.9657L62.7937 22.05L56.4592 16.9044Z" fill="#FC8E03"/>
<path d="M33.5086 16.9044L27.1741 22.05L29.2856 13.9657L22.9512 8.82002L30.6927 8.08435L33.5086 0L36.3246 8.08435L44.066 8.82002L37.7316 13.9657L39.8431 22.05L33.5086 16.9044Z" fill="#FC8E03"/>
<path d="M10.5574 16.9044L4.22295 22.05L6.33442 13.9657L0 8.82002L7.74143 8.08435L10.5574 0L13.3733 8.08435L21.1147 8.82002L14.7803 13.9657L16.8918 22.05L10.5574 16.9044Z" fill="#FC8E03"/>
<path d="M112 8.82002L104.595 8.08502L101.902 0L99.2087 8.08502L91.8032 8.82002L97.8623 13.965L95.8426 22.05L101.902 16.905L107.961 22.05L105.941 13.965L112 8.82002ZM106.78 20.1163L102.315 16.3248L101.902 15.9738L101.488 16.3248L97.0234 20.1163L98.5116 14.1587L98.6297 13.6857L98.2756 13.3851L93.5634 9.3834L99.27 8.81708L99.6958 8.77482L99.8419 8.33639L101.902 2.15061L103.962 8.33602L104.108 8.77445L104.534 8.81671L110.241 9.38303L105.528 13.3847L105.173 13.6857L105.292 14.1587L106.78 20.1163Z" fill="#FC8E03"/>
</svg>
